<svg xmlns="http://www.w3.org/2000/svg" width="24" height="22" fill="none"><path fill="url('#a')" d="M18.469 21.5a.75.75 0 0 1-.44-.14L12 16.987 5.971 21.36a.75.75 0 0 1-1.15-.847l2.35-6.965-6.093-4.179A.75.75 0 0 1 1.5 8h7.518l2.268-6.982a.75.75 0 0 1 1.427 0l2.27 6.984H22.5a.75.75 0 0 1 .424 1.369l-6.096 4.176 2.35 6.963a.752.752 0 0 1-.71.99Z"/><defs><linearGradient id="a" x1="3.5" x2="18.5" y1="2" y2="22" gradientUnits="userSpaceOnUse"><stop stop-color="#F84119"/><stop offset="1" stop-color="#F89F19" stop-opacity=".68"/></linearGradient></defs></svg>