<?xml version="1.0" standalone="no"?>
<!DOCTYPE svg PUBLIC "-//W3C//DTD SVG 20010904//EN"
 "http://www.w3.org/TR/2001/REC-SVG-20010904/DTD/svg10.dtd">
<svg version="1.0" xmlns="http://www.w3.org/2000/svg"
 width="736.000000pt" height="736.000000pt" viewBox="0 0 736.000000 736.000000"
 preserveAspectRatio="xMidYMid meet">
<metadata>
Created by potrace 1.14, written by Peter Selinger 2001-2017
</metadata>
<g transform="translate(0.000000,736.000000) scale(0.100000,-0.100000)"
fill="#000000" stroke="none">
<path d="M6343 6544 c-35 -17 -64 -54 -66 -85 -2 -24 -2 -24 -40 5 -55 40
-154 53 -220 27 -54 -21 -67 -105 -25 -163 l19 -28 -24 0 c-53 0 -107 -105
-102 -200 5 -97 29 -131 94 -136 30 -2 45 4 68 25 26 24 33 26 48 14 24 -17
53 -11 108 21 50 29 133 108 141 134 3 9 27 29 53 44 62 34 97 72 123 131 60
136 -53 272 -177 211z"/>
<path d="M3680 6362 c-14 -2 -29 -8 -34 -13 -6 -5 -17 -9 -25 -9 -17 0 -70
-46 -95 -82 l-15 -21 -33 32 c-32 32 -98 57 -124 47 -7 -3 -16 -1 -19 4 -6 9
-60 -7 -105 -32 -43 -23 -71 -51 -111 -112 -35 -53 -41 -69 -38 -92 0 -4 -4
-10 -9 -13 -6 -3 -12 -19 -15 -36 -22 -123 -24 -132 -39 -117 -7 7 -32 12 -55
12 -33 0 -50 -6 -68 -25 -14 -13 -25 -29 -25 -35 0 -7 -14 0 -31 14 -17 14
-36 26 -42 27 -7 0 -28 2 -47 5 -19 2 -55 -3 -80 -11 -117 -39 -157 -143 -95
-250 l25 -43 -32 7 c-123 27 -231 -127 -205 -291 3 -17 -1 -29 -10 -32 -8 -3
-11 -10 -8 -16 3 -6 -1 -7 -9 -4 -10 4 -16 1 -16 -7 0 -7 -3 -9 -7 -6 -3 4
-13 1 -21 -6 -8 -6 -35 -13 -59 -13 -27 -1 -55 -9 -71 -21 -31 -23 -61 -77
-62 -113 0 -14 -14 -38 -30 -54 -16 -16 -27 -33 -24 -37 3 -5 1 -9 -4 -9 -21
0 -56 -113 -54 -174 1 -53 6 -96 12 -103 2 -2 3 -6 4 -10 6 -28 58 -114 95
-155 24 -27 47 -65 52 -86 5 -20 11 -44 14 -52 2 -8 11 -44 20 -80 8 -36 18
-74 21 -85 3 -11 7 -31 10 -45 3 -13 16 -66 30 -118 13 -52 24 -100 24 -106 0
-7 -39 -41 -87 -76 -49 -36 -89 -68 -91 -72 -2 -5 -8 -8 -13 -8 -5 0 -17 -8
-28 -17 -10 -10 -53 -43 -95 -73 -42 -30 -76 -58 -76 -62 0 -5 -4 -8 -9 -8 -5
0 -113 -78 -239 -172 -126 -95 -241 -182 -257 -193 -15 -11 -40 -30 -55 -42
-15 -12 -29 -20 -32 -18 -2 3 -22 7 -44 10 -55 6 -114 15 -146 21 l-27 5 44
87 c23 48 79 161 123 252 181 374 267 552 326 670 35 69 64 130 66 135 2 6 66
138 142 295 77 157 157 321 178 365 l39 80 -32 16 c-18 8 -70 36 -117 61 -147
79 -223 120 -280 151 -58 31 -50 30 -315 39 l-60 3 -20 -40 c-11 -22 -31 -65
-44 -95 -26 -58 -71 -159 -101 -225 -10 -22 -27 -60 -38 -85 -11 -25 -29 -65
-40 -90 -11 -25 -41 -92 -67 -150 -73 -166 -76 -172 -100 -222 -13 -25 -21
-49 -18 -52 4 -3 1 -6 -5 -6 -7 0 -12 -6 -12 -13 0 -7 -39 -98 -86 -202 -80
-176 -105 -232 -109 -245 -5 -14 -27 -64 -68 -152 -25 -53 -43 -99 -39 -102 3
-3 0 -6 -6 -6 -7 0 -12 -9 -12 -20 0 -11 -4 -20 -10 -20 -5 0 -9 -3 -8 -7 3
-15 -14 -63 -23 -63 -5 0 -9 -5 -9 -11 0 -5 -9 -29 -19 -52 -11 -23 -55 -123
-99 -222 -44 -99 -94 -210 -111 -247 -61 -134 -62 -137 -43 -147 9 -5 19 -9
22 -9 7 -1 17 -5 128 -46 75 -28 187 -89 212 -117 19 -20 145 -87 282 -148 38
-17 72 -39 79 -52 6 -13 16 -28 20 -33 5 -6 23 -29 39 -51 16 -22 33 -44 38
-50 4 -5 23 -32 42 -60 19 -27 40 -56 47 -65 7 -8 59 -80 117 -160 57 -80 110
-152 118 -160 7 -9 26 -36 43 -60 16 -25 46 -66 65 -91 19 -26 44 -59 55 -75
11 -15 30 -40 43 -55 12 -15 22 -32 22 -38 0 -6 5 -11 10 -11 6 0 10 -6 10
-14 0 -8 4 -16 8 -18 5 -1 43 -50 85 -108 42 -58 83 -114 91 -125 9 -11 61
-83 117 -160 120 -165 111 -154 135 -159 10 -2 31 -9 47 -15 15 -6 27 -8 27
-5 0 4 7 1 15 -6 8 -7 15 -10 15 -7 0 4 18 0 41 -8 36 -13 45 -13 74 1 18 8
42 24 53 34 12 11 23 20 26 20 3 0 52 33 108 73 57 40 155 108 218 152 63 43
117 82 118 86 2 5 7 9 12 9 5 0 45 26 90 58 45 31 91 62 102 69 12 6 23 15 27
20 7 9 34 27 68 44 19 10 29 7 70 -19 69 -44 213 -109 283 -127 119 -31 263
-65 295 -70 79 -13 91 -14 165 -21 96 -10 488 -10 560 -1 30 4 73 9 95 11 40
4 104 13 140 20 11 2 40 7 65 11 25 4 67 13 94 21 l48 14 -6 -63 c-8 -73 0
-100 53 -167 78 -99 215 -208 326 -260 102 -47 288 -107 395 -126 14 -3 34 -8
45 -11 11 -4 29 -7 40 -8 11 -2 43 -6 70 -9 28 -4 77 -11 110 -15 67 -9 306
-7 345 2 14 4 37 9 52 13 53 11 163 72 209 116 l47 43 97 313 c53 173 98 322
100 332 2 10 8 27 13 37 6 10 10 21 11 26 1 4 1 8 2 10 0 1 2 9 4 17 2 8 24
83 50 165 26 83 48 157 50 165 2 8 10 33 18 55 17 47 77 240 82 266 2 10 8 26
13 36 6 10 10 21 11 26 1 4 1 8 2 10 0 1 2 9 4 17 1 8 23 80 48 160 25 80 59
188 75 240 26 84 33 97 63 113 19 10 41 26 50 35 19 19 116 322 118 365 1 43
-43 120 -106 182 -54 53 -226 176 -248 177 -5 0 -22 9 -37 19 -14 10 -29 19
-32 19 -3 0 -43 18 -89 39 -46 22 -103 45 -128 52 -24 7 -46 16 -49 19 -3 3
-56 22 -117 40 -62 19 -113 39 -113 45 0 5 10 53 21 105 11 52 22 105 25 117
2 12 20 91 38 175 19 84 37 166 40 183 7 40 36 76 77 98 28 15 49 17 124 13
50 -4 101 -8 115 -11 14 -3 50 -7 80 -10 106 -10 165 -17 172 -22 15 -8 69 29
88 60 24 39 25 82 4 122 -18 35 -39 49 -74 51 -14 1 -42 4 -63 8 -21 3 -59 9
-85 12 -26 3 -60 7 -77 10 -16 3 -46 8 -65 10 -19 2 -57 6 -85 10 -67 10 -66
11 -103 -10 -39 -20 -78 -26 -109 -15 -17 6 -26 1 -47 -25 -23 -31 -78 -61
-89 -49 -6 5 -13 -16 -21 -68 -4 -20 -19 -49 -37 -66 -16 -17 -32 -40 -34 -50
-8 -42 -57 -253 -71 -308 -9 -33 -17 -71 -18 -85 -2 -14 -6 -35 -10 -47 -6
-20 -9 -32 -21 -86 -2 -12 -7 -34 -10 -48 l-6 -25 -67 14 c-37 8 -76 15 -87
17 -11 1 -24 3 -28 4 -5 0 -6 4 -4 9 3 4 8 36 12 72 3 36 8 81 10 100 2 19 7
60 10 90 3 30 7 71 10 90 2 19 7 58 10 85 3 28 8 71 10 95 3 25 7 67 10 95 3
29 13 56 24 66 95 89 150 205 145 309 -4 78 -36 142 -104 209 -52 51 -148 111
-178 111 -7 0 -12 12 -12 28 -1 68 -61 108 -119 79 -27 -13 -27 -13 -44 27
-18 44 -62 76 -104 76 -25 0 -78 -32 -99 -59 -9 -11 -11 -7 -12 18 -1 57 -38
118 -86 140 -45 22 -99 27 -138 12 -22 -8 -23 -7 -20 29 8 76 -58 154 -152
182 -60 18 -156 18 -191 0 -28 -14 -30 -14 -50 14 -19 27 -59 68 -87 89 -54
42 -180 66 -248 48 -27 -7 -41 -6 -59 6 -27 17 -44 22 -82 22 -21 0 -30 9 -44
38 -47 105 -184 162 -314 131 -27 -6 -55 -18 -62 -26 -18 -22 -33 -17 -54 19
-46 79 -142 123 -235 109z"/>
</g>
</svg>
